<svg id="Layer_1" data-name="Layer 1" xmlns="http://www.w3.org/2000/svg" viewBox="0 0 3005.77 2313.11"><defs><style>.cls-1{fill:#e72a87;}.cls-2{fill:#fff;}.cls-3{fill:#181818;}.cls-4{fill:none;}.cls-5{fill:#231f20;}</style></defs><title>BGR logo</title><path class="cls-1" d="M7.24,2313.11,2915.42,2310,2913,0,4.69,3.19Zm174.45-66.83a74.81,74.81,0,1,1,74.71-74.93,74.87,74.87,0,0,1-74.71,74.93M179.46,252.05a74.79,74.79,0,1,1,74.66-74.93,74.87,74.87,0,0,1-74.66,74.93M2732.62,2243.48a74.81,74.81,0,1,1,74.74-74.92,74.81,74.81,0,0,1-74.74,74.92M2730.48,249.2a74.77,74.77,0,1,1,74.7-74.82,74.76,74.76,0,0,1-74.7,74.82"/><polygon class="cls-2" points="2916.32 2010.81 1.89 2013.92 0 335.49 2914.56 332.39 2916.32 2010.81"/><path class="cls-3" d="M128.37,513.69l115.26-.09c59.28,0,89.6,35.82,89.67,79.67,0,30.31-15.36,51.82-42.75,61.11,42.4,9.82,64.8,40,64.88,80.7,0,54.56-36.25,95.7-103,95.7L128.8,831ZM241.49,637.21c29.38,0,43.39-16.42,43.39-40.15S271.22,556.93,240.35,557H177.86l.14,80.34Zm8.09,150.26c38.22-.05,56.43-22.49,56.36-54.3,0-31.65-19.64-54-58.84-53.95l-69.06,0,.14,108.25Z"/><polygon class="cls-3" points="409.39 513.42 458.76 513.38 459.06 787.24 605.53 787.06 605.53 830.43 409.65 830.65 409.39 513.42"/><path class="cls-3" d="M770.91,509.7h5.6L916,830.17H864.6l-18.23-44.71-145,.14-18.26,44.69-47.51.11Zm57.73,234.18L788.79,645C780.88,626.29,773,597.85,773,597.85s-7.42,28.44-15.44,47.24L718.14,744Z"/><path class="cls-3" d="M924.22,671.45c-.13-94.71,72.61-162.51,162.74-162.56,56.86,0,98.88,21,127,62.88l-38,27.14c-17.59-27.59-47.53-45.67-89-45.62-65.9,0-112.44,50.48-112.34,118.16s46.75,118.37,112.51,118.37c43.9,0,73.33-19.72,93.77-50.09l37.85,26.58c-27.55,42-72.31,67.72-131.44,67.77-90.13.18-163-67.9-163.09-162.63"/><path class="cls-3" d="M1341.41,646.73l102.46-134.46,55.9-.09L1387.51,660.74l125.23,168.77-59.64,0-98.19-132.41-34,41.5v91l-49.34,0-.33-317.19,49.39-.17.1,130.64c0,14.57-1.86,33.58-3.69,46.65,7-14.39,16.41-32.17,24.32-42.92"/><path class="cls-3" d="M1649.79,670.63c-.1-94.64,68.44-162.41,162.64-162.53,48.6-.06,86.9,13.5,112.51,42.39l-33.06,33.09c-18.23-19.05-41.6-31.11-79.37-31.11-66.2.06-112.39,50.54-112.33,118.16S1747,789,1818.82,789c32.7,0,60.65-8.39,78.4-20.61v-56l-85.42.09-.08-43.38,130.7-.13.12,123.63c-20.52,18.69-64.34,40.65-123.62,40.74-98.83.09-169-67.94-169.13-162.69"/><polygon class="cls-3" points="2008.49 511.64 2057.55 511.56 2057.8 828.87 2008.85 828.92 2008.49 511.64"/><path class="cls-3" d="M2352.21,828.44l-56.85.18-57-83.55c-9,1-17.85,1.91-26.65,2h-29.83v81.58l-49.41.1-.36-317.29,79.32-.07c87.77-.1,136.78,45.55,136.88,118.41.07,49-21.87,82.58-63.38,100.79ZM2209.78,704.51c63.1,0,88.25-27.6,88.15-74.67,0-47.63-26.12-75.18-88.25-75.05h-28l.17,149.76Z"/><polygon class="cls-3" points="2411.16 511.25 2460.57 511.2 2460.98 785.06 2607.57 784.89 2607.57 828.21 2411.51 828.44 2411.16 511.25"/><path class="cls-3" d="M2633.61,766.72l40.61-22.54c14.93,24.67,34.14,44.31,72.79,44.31,32.22-.09,55.11-17.34,55.11-43.51-.1-27.6-18.74-39.58-53.33-55.06l-21-9.19c-46.28-20.45-74.19-43.82-74.34-92.83,0-47.1,36.32-80.75,89-80.83,42,0,70.53,15.78,89.73,49.91l-38.71,23.76c-12.18-21-26.27-30.71-50.91-30.71-25.26.05-41.08,15.43-41.08,36.89.11,23.82,13.61,34.58,45.78,48.49l20.58,9.41C2822,668.47,2851,693.61,2851,744.41c0,55.67-43.18,87.84-103,87.84-60.12.09-96.59-29.73-114.42-65.53"/><path class="cls-3" d="M792,1821.51l-214.93.18-148.88-228a357.9,357.9,0,0,1-53.12,4l-63.65,0,.18,224.22-185.69.23L125,919.84l249.39-.26c252.13-.27,403.55,120.28,403.83,340.59.08,140.62-62.13,229.58-173.57,280.14Zm-422.37-385.8c151.26,0,217.57-47.94,217.44-175.31s-69.23-177.83-217.8-177.56H310.82l.31,353Z"/><path class="cls-3" d="M878,1494.94l-.67-575.86,185.79-.31.63,565.28c.13,131.45,57.22,181.74,180.62,181.61,122.08-.09,177.75-50.56,177.59-181.91l-.58-565.28,185.83-.18.61,575.81c.18,228.3-157.55,338.65-363.22,338.87-208.31.18-366.37-109.72-366.6-338"/><path class="cls-3" d="M2021.71,1400.79c-45.14-42.4-107.62-123.27-107.62-123.27s13.37,99.49,13.42,164.58l.46,378.11-173.85.18-1-910.24,18.57,0,455.66,426.83c43.82,41.1,106.28,123.27,106.28,123.27s-12-102.12-12.18-164.56l-.25-378.2,173.7-.22,1,910.32h-18.62Z"/><path class="cls-3" d="M2627.23,1714.67c-.11-65.05,51.57-111.48,112.64-111.62,59.76-.08,111.54,46.31,111.57,111.27.1,66.44-51.63,112.91-111.35,112.91-61,.23-112.79-46.26-112.86-112.56m11-797.55,200.45-.18-28.53,595.83-142,.17Z"/><polyline class="cls-4" points="7.24 2313.11 4.69 3.19 2912.96 0 2915.42 2309.96"/><path class="cls-5" d="M2971.83,2246.32c19.11,0,33.94,14.8,33.94,33.31,0,18.87-14.83,33.48-34.12,33.48-19.07,0-34.33-14.61-34.33-33.48,0-18.51,15.26-33.31,34.33-33.31Zm-.42,6.69c-14.61,0-25.57,12-25.57,26.62,0,14.81,11,26.59,26,26.59,14.63.2,25.37-11.78,25.37-26.59,0-14.61-10.74-26.62-25.55-26.62Zm-5.06,43.86h-7.72v-33.12a67.34,67.34,0,0,1,12.78-1.19c6.31,0,9.18,1,11.61,2.63a9.19,9.19,0,0,1,3.22,7.11c0,3.87-2.82,6.72-6.87,7.92v.41c3.24,1,5.05,3.65,6.09,8.13,1,5.07,1.61,7.09,2.44,8.11h-8.33c-1-1.21-1.63-4-2.63-7.91-.64-3.65-2.66-5.26-7-5.26h-3.63Zm.24-18.65h3.63c4.28,0,7.72-1.44,7.72-4.9,0-3.06-2.24-5.06-7.14-5.06a17,17,0,0,0-4.21.41Z"/></svg>