<svg id="Layer_1" data-name="Layer 1" xmlns="http://www.w3.org/2000/svg" viewBox="0 0 353.52 248.24"><defs><style>.cls-1{fill:#d5b169;}.cls-2{fill:#231f20;stroke:#231f20;stroke-width:0.72px;}.cls-3{fill:#744b26;}</style></defs><path class="cls-1" d="M200.94,95.66h26V97.8l-8.06,6.37V130l3.43,5-3.3,4.85v27.36l8.29,5.39v2h-26v-1.73l8.29-6.68V116.6a4.85,4.85,0,0,0-.81,1.07c-.26.53-10.6,21-10.6,21s5.3,5.53,5.3,11.18-.84,11.41-6.77,16.84c0,0-5.61,4.9-12.38,5.84l2-3.57s6.42-2.14,8.51-7.44.53-8.15.26-9.13a9.59,9.59,0,0,0-2.71-3.61s-.31.14-.05.67,0,1.2-.71,2.27S178.71,177,178.71,177h-.45L146.5,118.34l-1.07-1.21L145.12,166l8.33,7v1.33H127.61v-1.74l8.25-5.83V139.32L132.6,135l3.08-4.72V104.21l-7-6.37V95.62h27.44v2.45a10.08,10.08,0,0,0-3.39,2.4c-1.24,1.52-1.51,3.88-.35,6.51s26,51.85,26,51.85l7.08-13.63s.18-.49.89-.18.4-.36-1-1a15.46,15.46,0,0,0-6.55-1.15s-1.15.17-.71,1.64,1.61.85,2.1.72a1.36,1.36,0,0,1,1.73.89,2.93,2.93,0,0,1-2.49,3.56c-2.41.31-4.54-3-5.17-5a2.55,2.55,0,0,1,1.38-3.3c.54,0,1.43-.44.49-1.15a14.83,14.83,0,0,0-4.63-2.41l-.89-1.82s11.85,3.2,19.73,8.33,8.15,10.42,8.07,10.78,1.24,1.42,2-1.34,1.11-7.66-3.79-13.45-19.07-11.27-20.4-11.76-11.68-4.41-13-8l-5.7-12.3s.84-5.74,8-9,18-1.78,20.68-1.29,9.13.44,11.13-2.72c0,0,1.12.93-.53,3.56s-2.41,2.32-1.16,3.08,4,4.36,3.7,7.61-2.32,6.37-5.84,6.51c0,0-1.92,0-2.09-1.34,0,0-.36-.58.71-.67s3.39-1,3.56-4.9-3.86-9.41-13.94-10.11c-11-.76-18.8,3.61-18.8,12.65a16.19,16.19,0,0,0,1,5.57c.9,2.39,5.79,8.64,15.77,8.55,1.12,0,3.65-.66,3.57-3.29,0,0,0-2.09-1.79-2.19s-.71-1.55.76-1.69,4.32.09,4.68,2.94a6.15,6.15,0,0,1-3.34,5.79c-1.25.45-1.34,1-.4,1.79s1.2.71,3.07,1.91,4.49,2.55,4.94,2.85.41-.44.72-1.33,12.47-25.62,12.47-25.62,1.43-2.85.27-5.3a6.53,6.53,0,0,0-3.79-3.21Z"/><path class="cls-1" d="M159.24,173.53c.72.23,1.92-.09.76-.67a1.47,1.47,0,0,1-.89-2c.18-.53.58-1.51,4.36-.31a62.64,62.64,0,0,0,9.05,1.87l-1.65-2.72a26.06,26.06,0,0,1-10.25-4.54c-4.32-3.47-2.94-7.93-2.36-8.64a3,3,0,0,1,2.5-1.21,1.65,1.65,0,0,0,2-1.69c0-1.29-2.45-2.67-5-2.09a6,6,0,0,0-4.41,6.77,11.37,11.37,0,0,0,3.57,5.92c.75.81,1.24,1.52,1,2a9.14,9.14,0,0,1-1.83,2.1c-1,.84-.22,2.49.09,3a5.35,5.35,0,0,0,3.07,2.23"/><path class="cls-1" d="M231.42,100.72c-2,1.48.93,4.38.29,5.54-1.85-.49-2.48,1.29-1.59,2.16.52-.8,1.14-.56,1.12-.15a3.23,3.23,0,0,0,.78,2.08c1.32,1.52,3.55,3.67,2.4,4.71a1.31,1.31,0,0,0,1.79-1.53,7.94,7.94,0,0,1,1.42,3.5c1.15,0,1.6-.6,1.41-1.14a3.3,3.3,0,0,1,1.05,3.18,1.45,1.45,0,0,0,1.64-.88c.79.27,1.39,1.86,1.39,3.14a6,6,0,0,0,.09,1.15c.08.21.46.7.73.74s1.15,0,1.85,0a.83.83,0,0,0,.59-.26,9.78,9.78,0,0,1-1-2.77,17.9,17.9,0,0,1-.22-5.93,25.26,25.26,0,0,1-5-3.48,31.59,31.59,0,0,1-3.18-3.2,11.72,11.72,0,0,1-.07-2.75c.16-1.26,2-1.83,2.49-2.34a2.46,2.46,0,0,0,.15-2.23,1.46,1.46,0,0,0-.95-.58,4.14,4.14,0,0,0-.52-1.71,3.87,3.87,0,0,0-2-1c-1.13-.23-3,.08-3,1.19a2.07,2.07,0,0,1,1.56.42c-1.32,1-2-.2-3.78.49-1.1.42-1.34,1.48-1.07,1.72A1.19,1.19,0,0,1,231.42,100.72Zm37,44A16.14,16.14,0,0,0,261,141c-1.88-.5-4.33-1.05-5.09-.41-.42.35-.36.88-.63,1a3.81,3.81,0,0,0-1,1.36c-.42.8.16,1.93.45,2.89s2,5.24,2.27,5.69.25.77,0,.93a15.52,15.52,0,0,1-2.35,1.65,4.17,4.17,0,0,1-1.38.45,1.34,1.34,0,0,1-.78-.56,12.16,12.16,0,0,0-.82-4,4.33,4.33,0,0,0-4.74-1.18,1.69,1.69,0,0,1-1.13,1.25c-.15,0-.54,0-1.18.84s-.48,2.28,0,2.46c0-.73.49-1.4,1.15-1.27a2.37,2.37,0,0,0,.59,1.53s-1.83,1-.62,3.28c.13-.89.7-1.5.65-1.24s.17.83.79,1.28a32.81,32.81,0,0,0,6.86,1.82,3.25,3.25,0,0,0,1.86-.53c.76-.39,4.21-3.26,7.7-4.2,1.11-1.81-3.31-3-2.46-5.94.95-.32,1.43-1.1,1.1-1.51,4.17,0,6.39.52,7.63,1.32C270.36,147.63,270,146.06,268.39,144.7Zm29.2-26.24c-.6,1.61.32,4.12,2.27,2.62-1.42-.29-.13-3.62.17-5.3a5.38,5.38,0,0,0-5.2-6.52,2.19,2.19,0,0,0,.54-3.59c-1.25,2.83-3.45,2-6.79,2-4.81,0-9.86,4.19-9.86,9.57s5.84,8.12,8.7,10.5c2.23,1.86,2.21,4.72,1.06,6.94a4.14,4.14,0,0,1-7.15.79,8.49,8.49,0,0,0-4.32-2.14,8.28,8.28,0,0,1-7.15-8.23c0-8.76,5.29-9.84,7-20,.94-5.56-2.3-11.88-2.3-11.88a5.08,5.08,0,0,0-.1-1.53c-.19-1.26-1.49-4.23-2.8-3.7a4.36,4.36,0,0,1-1.22,2.4c-1,.11-1.21-.11-1.44-.77-.31-.92-.72-1.14-1.22-1.15-.41.86-.95,2.05-.95,2.05H264.5c-.6,0-1.12.81-1.58,1a7,7,0,0,1-3.26,1.07,9.35,9.35,0,0,0-5,2.22c-.26.38.26,1.3.26,1.3-.23.12-.65.24-.65,1.15A1.75,1.75,0,0,0,255,98.8a1.28,1.28,0,0,0,1,1.6,2.79,2.79,0,0,1,.12-1.35c.2-.11,1,.17,1,.17a1.78,1.78,0,0,0,.43,1.5c.38.35.44.32.44-.17a2.21,2.21,0,0,1,.31-1.08,5.5,5.5,0,0,1,2.4.69,2.36,2.36,0,0,1,.69,1.09c-1.05-.54-3.36.19-4.58.81s-1.74.32-1.74.32a1.13,1.13,0,0,0-.68-1.61,1.33,1.33,0,0,0-1.47,1.85c.39,1.35,2.07,1.51,3.27,1,1.59-.63,2.62-2.28,5.22-1.75.1.2-.06.76-.06.76a11,11,0,0,1-1.43,1.7c-.55.45-1.17.8-1.55.44a1.57,1.57,0,0,1-.47-1.22,1,1,0,0,0-.12,1.81,4.51,4.51,0,0,1-.67-.21,1.18,1.18,0,0,1-.51-1.1,1.1,1.1,0,0,0-.61,1.14c-.49.71-.45,1.1.33,1.78a3.63,3.63,0,0,0,3,.39,5.6,5.6,0,0,0,2.35-1.51c.79-.75,1.14-.51,1.14-.51s.11.11-.1,1a5.34,5.34,0,0,1-2.87,2.78c-1.59.81-4.72.7-6.1.61a6.24,6.24,0,0,0-5.42,3.08c-1.61,2.55-1.17,5.07-.91,6.77.11.69.4.57.41.32a9.91,9.91,0,0,1,.45-2.69c.61-2.26,1.25-2.2,3-3,1.94-.93,2.59-.8,2.79-.46a.51.51,0,0,1-.08.6s-2.5,2-3.24,2.76-1.47,3.67-1.78,4.8-2.46,3.09-2.93,3.31a40.15,40.15,0,0,0-5.6,4.57,9.36,9.36,0,0,1-5.11,2.25c-.49,0-1.88.59-1.81.22a3.07,3.07,0,0,0-.37-1.37,1.6,1.6,0,0,1-.07-1.24,2.1,2.1,0,0,0,.35-1.45,4.65,4.65,0,0,0-2.9-1.36,6.4,6.4,0,0,0-3.21,1.28,2.62,2.62,0,0,0-.1,2,2,2,0,0,0-1.16,2c.12.93,1.34,1.22,1.34,1.22-.44-.85.1-1.38.34-1.14a1.85,1.85,0,0,0,.81,1.54c.26.16.46.23.12.52a3,3,0,0,0-.32,2.5c.32.83.93.74.93.74a1.35,1.35,0,0,1,0-1.25c.11-.35.35-.17.35-.17.19,1.22,1.45,1.7,3.1,1.7a7.52,7.52,0,0,1,4.24-1.39c1,0,2.11.55,1.75,1.53,2.38-.57,2.3-3,4-3.33.07.67-.46,2.12-.92,2.26,1.92.31,3.64-1.78,3.93-3,.54.3.45,2,.11,2.34a6.91,6.91,0,0,0,3-3.6,2,2,0,0,1,.42,1.79,10,10,0,0,0,3-2.2c1.94-1.9,3.92-7.79,11.23-9.36.7-.15,2.5.12,1.53.59a9,9,0,0,0-4.89,3.23c-.41.58.16.84-.54,1.52-2.49-1.27-4.33,4.49-6.22,5.77,2.62,3.47,6.31,4.87,9.34,5.73,3.39,1,4.31,1.15,6.23,2.44s3.27,4,3.81,7.74a8.23,8.23,0,0,0,5.16,6,3.57,3.57,0,0,1,1.28.41c1.29,2.38,6.35,4.24,6.35,4.24a8.41,8.41,0,0,1,.56,1.51c.18.73.41,1.38-.16,1.95a3,3,0,0,1-1.51.8c-.17,0-.31.19-.31-.08a1.3,1.3,0,0,0-.93-1c-.64-.22-1.24-.06-2.23,1a6.34,6.34,0,0,0-1.13,3.26s-.41.3-.41,1.3a1,1,0,0,0,.77,1.12,4.3,4.3,0,0,1-.14-.58c-.07-.38.32-.76.4-.57s.8.24.8.24c.07,1.56,1.11,1.66,1.11,1.66a3.1,3.1,0,0,1-.21-.72c-.05-.34-.15-.92.24-.46s1.72.51,2.49.5a3,3,0,0,0,1.22-.3.87.87,0,0,0,.37.88c.29.19.23.08.2-.32s.61-.45.61-.45a4.81,4.81,0,0,0,3.49-2.52,40.07,40.07,0,0,0,.42-5.1,9.12,9.12,0,0,0-.74-3.69,4.45,4.45,0,0,1-.2-2s.24-.71-.15-1.1a1.7,1.7,0,0,0-1.27-.32,5.8,5.8,0,0,0-.9.3c-1.14.33-2.42-.94-2.42-.94-1.84-1.51-2.07-6-2.07-6,2.14-3,1.93-6.39,1-7.93,4.31.77,8.55-3.61,8.55-9.21,0-8.34-11-7.16-11-14.93,0-4.88,5-5.4,6.34-5.4,3,0,3.69,2.77,2.73,5a3.77,3.77,0,0,0,2.9-3.64c2.79,3.55-4.45,5.26-2.56,11A11.34,11.34,0,0,1,293.7,120c0,8.62,9.17,8.26,9.17,3.82C300.8,127.33,294.17,123.06,297.59,118.46Zm-33.45-25.2c.49-1.86,4,.11,4,.11C266.19,95.11,263.79,94.56,264.14,93.26Z"/><path class="cls-1" d="M124.07,100.8c.27-.24,0-1.3-1.07-1.72-1.79-.69-2.46.54-3.78-.49a2.12,2.12,0,0,1,1.57-.42c0-1.11-1.87-1.42-3-1.19a3.9,3.9,0,0,0-2,1,4.07,4.07,0,0,0-.51,1.71,1.44,1.44,0,0,0-1,.58,2.46,2.46,0,0,0,.15,2.23c.46.51,2.32,1.08,2.48,2.34a11.15,11.15,0,0,1-.07,2.75,31.59,31.59,0,0,1-3.18,3.2,25.26,25.26,0,0,1-5,3.48,17.61,17.61,0,0,1-.22,5.93,9.78,9.78,0,0,1-1,2.77.86.86,0,0,0,.6.26c.7,0,1.58.1,1.85,0s.64-.53.72-.74a6,6,0,0,0,.09-1.15c0-1.28.61-2.87,1.39-3.14a1.45,1.45,0,0,0,1.64.88,3.29,3.29,0,0,1,1.06-3.18c-.19.54.26,1.17,1.41,1.14a7.8,7.8,0,0,1,1.41-3.5,1.31,1.31,0,0,0,1.79,1.53c-1.15-1,1.09-3.19,2.41-4.71a3.29,3.29,0,0,0,.78-2.08c0-.41.59-.65,1.12.15.89-.87.25-2.65-1.59-2.16-.65-1.16,2.32-4.06.29-5.54A1.18,1.18,0,0,1,124.07,100.8ZM83.93,148c1.25-.8,3.47-1.32,7.64-1.32-.34.41.15,1.19,1.09,1.51.86,2.94-3.57,4.13-2.45,5.94,3.49.94,6.93,3.81,7.69,4.2a3.27,3.27,0,0,0,1.86.53,33.06,33.06,0,0,0,6.87-1.82,1.6,1.6,0,0,0,.79-1.28c-.06-.26.52.35.65,1.24,1.2-2.27-.63-3.28-.63-3.28a2.32,2.32,0,0,0,.59-1.53c.67-.13,1.14.54,1.15,1.27.47-.18.64-1.64,0-2.46s-1-.87-1.17-.84a1.68,1.68,0,0,1-1.14-1.25,4.32,4.32,0,0,0-4.73,1.18,12.15,12.15,0,0,0-.83,4,1.29,1.29,0,0,1-.78.56,4.24,4.24,0,0,1-1.38-.45,16.07,16.07,0,0,1-2.35-1.65c-.24-.16-.21-.46,0-.93s2-4.72,2.28-5.69.86-2.09.44-2.89a3.83,3.83,0,0,0-1-1.36c-.28-.15-.22-.68-.63-1-.77-.64-3.22-.09-5.1.41a16.14,16.14,0,0,0-7.36,3.68C83.89,146.06,83.49,147.63,83.93,148ZM51,123.83c0,4.44,9.18,4.8,9.18-3.82a11.52,11.52,0,0,1,2.28,3.67c1.89-5.74-5.36-7.45-2.56-11a3.76,3.76,0,0,0,2.9,3.64c-1-2.2-.23-5,2.72-5,1.33,0,6.34.52,6.34,5.4,0,7.77-11,6.59-11,14.93,0,5.6,4.24,10,8.55,9.21-.93,1.54-1.14,4.92,1,7.93,0,0-.23,4.44-2.06,6,0,0-1.28,1.27-2.43.94a5.47,5.47,0,0,0-.9-.3,1.69,1.69,0,0,0-1.26.32c-.39.39-.15,1.1-.15,1.1a4.36,4.36,0,0,1-.21,2,9.47,9.47,0,0,0-.74,3.69,39.92,39.92,0,0,0,.43,5.1,4.78,4.78,0,0,0,3.48,2.52s.67,0,.62.45-.1.51.2.32a.88.88,0,0,0,.36-.88,3.06,3.06,0,0,0,1.22.3c.77,0,2.1,0,2.5-.5s.28.12.24.46a2.89,2.89,0,0,1-.22.72s1.05-.1,1.11-1.66c0,0,.75,0,.81-.24s.46.19.39.57a3.68,3.68,0,0,1-.13.58,1,1,0,0,0,.77-1.12c0-1-.42-1.3-.42-1.3a6.34,6.34,0,0,0-1.13-3.26c-1-1-1.59-1.18-2.23-1a1.3,1.3,0,0,0-.93,1c0,.27-.13.1-.31.08a3.09,3.09,0,0,1-1.51-.8c-.57-.57-.33-1.22-.16-1.95a9.37,9.37,0,0,1,.56-1.51s5.07-1.86,6.35-4.24a3.67,3.67,0,0,1,1.29-.41,8.24,8.24,0,0,0,5.15-6c.54-3.76,1.89-6.44,3.82-7.74s2.84-1.48,6.23-2.44c3-.86,6.72-2.26,9.33-5.73-1.89-1.28-3.72-7-6.22-5.77-.7-.68-.12-.94-.53-1.52a12,12,0,0,0-2.13-2,11.53,11.53,0,0,0-2.77-1.24c-1-.47.83-.74,1.54-.59,7.3,1.57,9.28,7.46,11.22,9.36a10,10,0,0,0,3,2.2,2,2,0,0,1,.42-1.79,7,7,0,0,0,3,3.6c-.34-.3-.42-2,.11-2.34.3,1.25,2,3.34,3.93,3-.46-.14-1-1.59-.92-2.26,1.73.38,1.66,2.76,4,3.33-.36-1,.77-1.51,1.75-1.53a7.49,7.49,0,0,1,4.24,1.39c1.66,0,2.91-.48,3.11-1.7,0,0,.23-.18.35.17a1.38,1.38,0,0,1,0,1.25s.61.09.92-.74a3,3,0,0,0-.31-2.5c-.34-.29-.15-.36.12-.52a1.82,1.82,0,0,0,.8-1.54c.24-.24.79.29.34,1.14,0,0,1.23-.29,1.34-1.22a2,2,0,0,0-1.15-2,2.72,2.72,0,0,0-.1-2,6.48,6.48,0,0,0-3.21-1.28,4.63,4.63,0,0,0-2.9,1.36,2.1,2.1,0,0,0,.34,1.45,1.59,1.59,0,0,1-.06,1.24,3.09,3.09,0,0,0-.38,1.37c.07.37-1.31-.22-1.81-.22a9.31,9.31,0,0,1-5.1-2.25,40.68,40.68,0,0,0-5.61-4.57c-.47-.22-2.62-2.16-2.92-3.31s-1.06-4.1-1.78-4.8-3.24-2.76-3.24-2.76a.5.5,0,0,1-.08-.6c.2-.34.85-.47,2.78.46,1.74.83,2.39.77,3,3a9,9,0,0,1,.45,2.69c0,.25.31.37.41-.32a9.09,9.09,0,0,0-.9-6.77,6.25,6.25,0,0,0-5.42-3.08c-1.39.09-4.51.2-6.11-.61a5.32,5.32,0,0,1-2.86-2.78c-.21-.9-.1-1-.1-1s.34-.24,1.14.51a5.48,5.48,0,0,0,2.35,1.51,3.6,3.6,0,0,0,3-.39c.78-.68.83-1.07.33-1.78a1.1,1.1,0,0,0-.61-1.14,1.18,1.18,0,0,1-.51,1.1,4.51,4.51,0,0,1-.67.21,1,1,0,0,0-.11-1.81,1.62,1.62,0,0,1-.48,1.22c-.38.36-1,0-1.54-.44a10.37,10.37,0,0,1-1.43-1.7,1.76,1.76,0,0,1-.07-.76c2.61-.53,3.64,1.12,5.22,1.75,1.2.48,2.89.32,3.28-1a1.33,1.33,0,0,0-1.47-1.85,1.13,1.13,0,0,0-.69,1.61s-.46.32-1.74-.32-3.53-1.35-4.58-.81a2.36,2.36,0,0,1,.69-1.09,5.56,5.56,0,0,1,2.41-.69,2.21,2.21,0,0,1,.31,1.08c0,.49,0,.52.44.17a1.78,1.78,0,0,0,.42-1.5s.81-.28,1-.17a2.79,2.79,0,0,1,.12,1.35,1.29,1.29,0,0,0,1-1.6,1.75,1.75,0,0,0,.74-1.47c0-.91-.43-1-.66-1.15,0,0,.52-.92.26-1.3a9.35,9.35,0,0,0-5-2.22,7,7,0,0,1-3.26-1.07c-.46-.24-1-1-1.58-1H87s-.54-1.19-1-2.05c-.5,0-.92.23-1.23,1.15-.22.66-.47.88-1.44.77A4.42,4.42,0,0,1,82.19,88c-1.3-.53-2.6,2.44-2.79,3.7a4.63,4.63,0,0,0-.1,1.53S76.06,99.56,77,105.12c1.71,10.14,7,11.22,7,20a8.28,8.28,0,0,1-7.14,8.23,8.49,8.49,0,0,0-4.32,2.14,4.54,4.54,0,0,1-2.89,1.68,4.48,4.48,0,0,1-4.26-2.47c-1.15-2.22-1.18-5.08,1.06-6.94,2.85-2.38,8.7-5.2,8.7-10.5s-5.06-9.57-9.87-9.57c-3.33,0-5.54.83-6.79-2a2.2,2.2,0,0,0,.54,3.59,5.38,5.38,0,0,0-5.2,6.52c.31,1.68,1.6,5,.18,5.3,1.95,1.5,2.87-1,2.26-2.62C59.67,123.06,53.05,127.33,51,123.83ZM85.7,93.37s3.52-2,4-.11C90.05,94.56,87.65,95.11,85.7,93.37Z"/><path class="cls-1" d="M222.86,82.36c1.53,0,2.92,3.2.51,4.66-4.13,2.5-11.12-1.87-17.05-6.5a28.78,28.78,0,0,0-6.73-4c-4.94-1.91-9.34-.9-11.71,1.31l.06-.06a16.44,16.44,0,0,1-22,0l.06.06c-2.37-2.21-6.77-3.22-11.71-1.31a29.2,29.2,0,0,0-6.73,4c-5.93,4.63-12.92,9-17,6.5-2.42-1.46-1-4.66.5-4.66,0-2.61-6.82-3.33-6.82,1.38,0,5,9.33,9.11,20.06,2.13a7.5,7.5,0,0,0,0,2.67,4.67,4.67,0,0,0,7.45,3c2.82-2.29.87-7-2.14-5.9a1.63,1.63,0,1,0,.93,3.12c0,1.58-3,1.84-3.81-.09s-.5-3.69,1.64-5.71c.15-.13,1-.82,1.26-1,4.25-3,7.09-4.2,9.43-4.2,2.87,0,5.19,1.12,5.19,3-1.78-1.27-6.08-1.21-7.65,1.89,5.53,0,8.75,6.22,11,8.19-.66-4.57-3.11-8.55-7.46-8.83,5-1.16,8.56,3.92,9,10a12.1,12.1,0,0,0,3.12,1.32c-.24-3.35-1.32-8.73-5.69-10.59,6.07.82,7.52,5.83,7.7,11,.72.09,1.47.13,2.25.15-.15-1.07-.32-2.13-.43-3.19a11.08,11.08,0,0,1-.23-3,7.34,7.34,0,0,1,1-3,.13.13,0,0,1,.18,0,.1.1,0,0,1,0,0,7.47,7.47,0,0,1,1,3,11.49,11.49,0,0,1-.22,3c-.11,1.06-.29,2.12-.43,3.19.78,0,1.53-.06,2.24-.15.18-5.16,1.63-10.17,7.7-11-4.37,1.86-5.45,7.24-5.68,10.59A11.89,11.89,0,0,0,184.78,92c.47-6,4.08-11.13,9-10-4.36.28-6.81,4.26-7.46,8.83,2.19-2,5.42-8.19,10.94-8.19-1.57-3.1-5.87-3.16-7.65-1.89,0-1.9,2.32-3,5.19-3,2.35,0,5.18,1.2,9.44,4.2.29.21,1.1.9,1.25,1,2.14,2,2.38,3.9,1.64,5.71s-3.81,1.67-3.81.09a1.63,1.63,0,1,0,.93-3.12c-3-1-4.95,3.61-2.14,5.9a4.68,4.68,0,0,0,7.46-3,7.73,7.73,0,0,0,0-2.67c10.73,7,20.07,2.9,20.07-2.13C229.69,79,222.86,79.75,222.86,82.36Z"/><path class="cls-1" d="M197.61,43.64l.24-.24-.4,0C197.5,43.45,197.56,43.54,197.61,43.64Z"/><path class="cls-1" d="M196.88,42.32a.91.91,0,0,1,.07.14,1.16,1.16,0,0,0,0-.18Z"/><path class="cls-1" d="M220.37,66.24l.43,0C226,66.26,228,61,228,60.61a8,8,0,0,0-6.79-4.45,7.36,7.36,0,0,0-1.66.19c-2.54.59-6.88,1.4-10.46,2.06-1.79.33-3.6.66-5.37,1a2.19,2.19,0,0,1-1.77,2.36c-1.83.44-2.65-.14-3.06-.66a6.13,6.13,0,0,0-1-1,6.62,6.62,0,0,0,.47-1.35c.13-.65.6-1.54,2.43-2a2.2,2.2,0,0,1,2.65,1.32l6-1.74c3.78-1.11,8.63-2.57,11.26-3.22a7.16,7.16,0,0,0,4.65-3.53,8.3,8.3,0,0,0,1.17-4.36,8.57,8.57,0,0,0-6-2.67c-1.26,0-3.13,1.06-4.28,1.73-2.35,1.35-6.15,2.68-9.5,4.42l-.92.48a2.7,2.7,0,0,1-1.25,3.4c-2,1.17-3.19.79-3.86.32a7.63,7.63,0,0,0-1.58-.79,7.61,7.61,0,0,0,.07-1.77c-.08-.82.16-2,2.16-3.22a2.7,2.7,0,0,1,3.55.52l1.56-1c3.4-2.23,4.95-2.72,7.35-4.16a7.42,7.42,0,0,0,3.54-4.94,8.56,8.56,0,0,0-.17-4.65,8.4,8.4,0,0,0-4.45-1.16A7.44,7.44,0,0,0,207,34.2c-1.55,1.66-2.5,2.63-4.3,4.4a2.71,2.71,0,0,1-.23,3.59c-1.57,1.71-2.83,1.69-3.61,1.44a7.14,7.14,0,0,0-1-.23l-.24.24c-.05-.1-.11-.19-.16-.28l-.31,0a8.23,8.23,0,0,0-.19-.87.91.91,0,0,0-.07-.14l0,0a4.43,4.43,0,0,0-.23-.67c-.32-.76-.44-2,1.13-3.72a2.7,2.7,0,0,1,3.32-.67c2.52-3.06,5.26-6.54,7-8.51a7.68,7.68,0,0,0,2-6,8.63,8.63,0,0,0-1.59-4.53,5.38,5.38,0,0,0-1.83-.23A8.39,8.39,0,0,0,199,22.51c-1.26,2.6-3.64,6.82-5.57,10.37-.78,1.44-1.57,2.9-2.34,4.34a2.65,2.65,0,0,1,.52,3.2c-1,2.07-2.19,2.42-3,2.4a7.7,7.7,0,0,0-1.73.23,8,8,0,0,0-.93-1.5c-.52-.62-1-1.76,0-3.84a2.81,2.81,0,0,1,3.9-1.31c.72-1.69,1.44-3.41,2.15-5.11,1.67-4,3.25-7.78,4.52-10.48a8,8,0,0,0,.17-6.55,9,9,0,0,0-2.93-4h-.14c-1.14,0-7.12,1.25-8.06,7.18-.47,2.95-1.24,6.8-2.07,10.89,0,.22-.09.44-.13.66-.59-.25-1.19-.46-1.8-.65,0-.37.07-.75.11-1.12.46-4.44.89-8.64,1.32-11.68A8.24,8.24,0,0,0,181.15,9a9.16,9.16,0,0,0-4.09-3A9.14,9.14,0,0,0,173,9a8.21,8.21,0,0,0-1.83,6.54c.42,3.05.84,7.24,1.27,11.68,0,.37.08.74.11,1.11a18.65,18.65,0,0,0-1.85.67c0-.22-.09-.45-.14-.67-.83-4.08-1.17-6.38-1.63-9.33-.92-5.86-7-7.19-8.06-7.19h-.12a8.85,8.85,0,0,0-3,4,8,8,0,0,0,.16,6.56c1.26,2.7,2.4,4.92,4.07,8.92.57,1.37,1.15,2.76,1.73,4.13a2.76,2.76,0,0,1,3.74,1.38c1,2.07.51,3.21,0,3.84a7.75,7.75,0,0,0-.92,1.49,7.84,7.84,0,0,0-1.74-.23c-.81,0-2-.33-3-2.4a2.65,2.65,0,0,1,.57-3.24c-.61-1.13-1.21-2.26-1.82-3.38-1.18-2.19-4.27-7.28-6.24-11.32A8.38,8.38,0,0,0,146.52,17a5.66,5.66,0,0,0-1.81.22,8.7,8.7,0,0,0-1.6,4.54,7.7,7.7,0,0,0,2,6c1.94,2.15,5.7,7,8.38,10.26l.88,1a2.88,2.88,0,0,1,3.81.56c1.67,1.82,1.53,3.15,1.19,3.95a8.89,8.89,0,0,0-.49,1.83,8,8,0,0,0-1.85.31c-.83.27-2.16.29-3.83-1.53A2.88,2.88,0,0,1,153,40.3l-.39-.39c-2.79-2.74-3.95-3.83-5.85-5.88a7.46,7.46,0,0,0-5.66-2.44,8.44,8.44,0,0,0-4.43,1.14,8.52,8.52,0,0,0-.19,4.66,7.46,7.46,0,0,0,3.54,5c2.4,1.44,4.14,2.06,7.54,4.3,1.77,1.16,3.55,2.34,5.3,3.47a2.74,2.74,0,0,1,3.78-.79c2,1.17,2.22,2.39,2.14,3.2a7.78,7.78,0,0,0,.06,1.76,8,8,0,0,0-1.57.78c-.66.47-1.84.85-3.83-.32a2.7,2.7,0,0,1-1.22-3.44l-4.93-2.59c-3.35-1.74-6.51-3.39-8.85-4.75a11.57,11.57,0,0,0-4.52-1.48,8.62,8.62,0,0,0-6,2.64A8.19,8.19,0,0,0,129,49.5a7.18,7.18,0,0,0,4.66,3.55c2.62.65,7.06,2.18,10.84,3.29l1.33.38a2.58,2.58,0,0,1,3-1.3c2.15.52,2.71,1.58,2.86,2.35a7.52,7.52,0,0,0,.56,1.6,7,7,0,0,0-1.22,1.16c-.48.62-1.46,1.3-3.62.78a2.6,2.6,0,0,1-2.09-2.85l-.49-.1c-3.58-.66-7-1.29-9.51-1.88a7.4,7.4,0,0,0-1.67-.2,8,8,0,0,0-6.78,4.43c0,.44,2,5.67,7.16,5.67h.42c2.61-.14,6.2-.18,10-.22l5.8-.08a2,2,0,0,1,1.7-1c1.76-.1,2.43.57,2.72,1.11a6.08,6.08,0,0,0,.79,1.09,6,6,0,0,0-.66,1.16c-.22.58-.8,1.32-2.56,1.43A2.17,2.17,0,0,1,150,67.63v-.18l-4.52.51c-3.49.39-5.62.52-8.14.69a6.62,6.62,0,0,0-4.79,2.44,7.87,7.87,0,0,0-1.8,3.82,7.75,7.75,0,0,0,6.21,3.51,7,7,0,0,0,2.36-.43c2.35-.86,4.36-1.73,7.72-2.92,3.87-1.37,7.87-2.79,11.22-4a32,32,0,0,1,3.09-.89,32.63,32.63,0,0,0,6.3-4.33,27.37,27.37,0,0,1-3.62.06,22.65,22.65,0,0,1-4.35-.7v-.15a22.43,22.43,0,0,1,4.35-.6,37.42,37.42,0,0,1,4.36.2l.46,0c.32-.33.62-.66.91-1l-1.59-.39a39.16,39.16,0,0,1-4.41-1.16,22,22,0,0,1-4.17-2l0-.14a22.19,22.19,0,0,1,4.56.65,39.28,39.28,0,0,1,4.33,1.45l1.95.69c.2-.25.39-.51.57-.77l-2.33-1.34a41.38,41.38,0,0,1-4.1-2.44A23.5,23.5,0,0,1,161,55.1L161,55a24.58,24.58,0,0,1,4.4,2,41.59,41.59,0,0,1,3.93,2.71c.73.51,1.46,1,2.18,1.56.17-.27.33-.54.48-.82L170,58.29a43.31,43.31,0,0,1-3.41-3.63,24.81,24.81,0,0,1-2.73-4.22l.13-.11a25.67,25.67,0,0,1,3.84,3.25A41.58,41.58,0,0,1,171,57.42l1.53,1.92a10.23,10.23,0,0,0,.12-8c-3.64-9-.92-13.47,2.08-14.95l-1.22-2.86a3.39,3.39,0,0,1-1.95-2.65,1.32,1.32,0,0,1,2.23-.94,3.38,3.38,0,0,1,.55,3.22L175.53,36a5.82,5.82,0,0,1,1-.21V32.46a3.76,3.76,0,0,1-.85-3.55A1.42,1.42,0,0,1,177,28a1.4,1.4,0,0,1,1.34.89,3.71,3.71,0,0,1-.83,3.53v3.4a5.06,5.06,0,0,1,.88.16l1.29-3a3.37,3.37,0,0,1,.55-3.23,1.27,1.27,0,0,1,1.42-.26,1.3,1.3,0,0,1,.8,1.21,3.38,3.38,0,0,1-1.95,2.64l-1.27,3a4.31,4.31,0,0,1,2.16,4.81c1.77.3,3,1.92,3,4.31,0,0-.6-1-3.4-1.1s-5,2.87-2.58,8.08a11.9,11.9,0,0,0,2.5,3.23,42.63,42.63,0,0,1,2.07-4.75,25.2,25.2,0,0,1,2.91-4.35l.16.07a26.19,26.19,0,0,1-1.52,5,44.62,44.62,0,0,1-2.38,4.61l-.22.41,1,1,.2-.26a41.69,41.69,0,0,1,3.17-3.84,24.7,24.7,0,0,1,3.84-3.25l.12.11a24.21,24.21,0,0,1-2.73,4.22,41.73,41.73,0,0,1-3.41,3.63l-.3.3c.32.34.63.68.94,1a43,43,0,0,1,3.91-2.69,24,24,0,0,1,4.4-2l.08.13a23,23,0,0,1-3.63,3.17,37.22,37.22,0,0,1-3.94,2.35c.3.39.58.79.85,1.21a27.68,27.68,0,0,1,3.51-1.15,22.28,22.28,0,0,1,4.57-.65l0,.14A22.82,22.82,0,0,1,187.13,63a13.59,13.59,0,0,1,.7,1.49,17.17,17.17,0,0,1,2.27,0,22.53,22.53,0,0,1,4.36.6v.15a22.43,22.43,0,0,1-4.34.7,15.59,15.59,0,0,1-1.81,0,15.06,15.06,0,0,1,.57,3.51,39.91,39.91,0,0,1,6.89,1.65c3.36,1.23,7.35,2.66,11.21,4,3.33,1.19,5.05,2.12,7.38,3a6.87,6.87,0,0,0,2.37.43,7.78,7.78,0,0,0,6.2-3.47,7.64,7.64,0,0,0-1.78-3.84,6.68,6.68,0,0,0-4.79-2.46c-2.52-.17-4.39-.36-7.88-.76l-1.12-.13a1.92,1.92,0,0,1-2.09,1.79c-1.58-.1-2.11-.77-2.31-1.3a5.33,5.33,0,0,0-.59-1,5.21,5.21,0,0,0,.71-1c.27-.49.87-1.1,2.46-1a1.84,1.84,0,0,1,1.51.83l2.36,0C213.22,66.24,217.76,66.1,220.37,66.24Zm-4.28-6.14c.29-.8,1.06-1.83,3.45-2,2.12-.19,3.13,1.4,3.27,3a3,3,0,0,1-2.71,3.51c-2.39.21-3.32-.68-3.74-1.41a8,8,0,0,0-1.12-1.44A8,8,0,0,0,216.09,60.1Zm-1.54-11.73c0-.88.49-2.13,2.79-3.06,2-.83,3.53.43,4.15,2s.43,3.47-1.62,4.3c-2.3.92-3.49.33-4.13-.27a8.17,8.17,0,0,0-1.54-1.09A8.7,8.7,0,0,0,214.55,48.37Zm-6.5-12.63c1.78-1.44,3.62-.64,4.7.7s1.48,3.31-.29,4.74c-2,1.61-3.36,1.39-4.17,1a8.54,8.54,0,0,0-1.85-.6,8.74,8.74,0,0,0-.22-2C206,38.73,206.06,37.35,208.05,35.74Zm-7.56-12c1.32-1.95,3.38-1.72,4.85-.72s2.47,2.82,1.15,4.77c-1.49,2.2-2.9,2.39-3.83,2.23a9.05,9.05,0,0,0-2,0,9,9,0,0,0-.8-1.86C199.36,27.3,199,25.92,200.49,23.72Zm-13.1-5.55c.71-2.32,2.82-2.71,4.58-2.18s3.28,2,2.56,4.37c-.8,2.62-2.14,3.23-3.1,3.35a9.22,9.22,0,0,0-2,.57,9.54,9.54,0,0,0-1.35-1.59C187.36,22.05,186.59,20.79,187.39,18.17Zm-21.06,6.07A9.12,9.12,0,0,0,165,25.83a8.63,8.63,0,0,0-2-.57c-.95-.13-2.29-.74-3.09-3.36-.71-2.33.82-3.83,2.57-4.36s3.86-.15,4.57,2.18C167.83,22.34,167.06,23.6,166.33,24.24Zm-12.89,2.89a9,9,0,0,0-.8,1.86,9.13,9.13,0,0,0-2,0c-.92.15-2.33,0-3.81-2.23-1.32-2-.33-3.78,1.14-4.78s3.54-1.22,4.86.73C154.29,25,153.93,26.34,153.44,27.13Zm-5.9,12.31a8.74,8.74,0,0,0-.22,2,8.24,8.24,0,0,0-1.85.61c-.81.4-2.17.63-4.17-1-1.77-1.44-1.37-3.41-.29-4.74s2.93-2.14,4.7-.7C147.7,37.19,147.77,38.57,147.54,39.44Zm-8.93,11.77c-.63.6-1.83,1.19-4.13.26-2-.83-2.23-2.76-1.61-4.3s2.11-2.81,4.15-2c2.3.94,2.75,2.19,2.79,3.07a8.7,8.7,0,0,0,.35,1.86A8.08,8.08,0,0,0,138.61,51.21Zm-.09,12.08c-.42.74-1.36,1.62-3.75,1.41-2.12-.18-2.84-1.92-2.7-3.52a3,3,0,0,1,3.28-3c2.38.21,3.15,1.24,3.44,2a8.2,8.2,0,0,0,.84,1.62A7.67,7.67,0,0,0,138.52,63.29ZM142.12,74c-.18.8-.79,1.88-3.05,2.36a3.17,3.17,0,0,1-1.31-6.18c2.26-.47,3.26.27,3.75.92a7.64,7.64,0,0,0,1.24,1.26A7.65,7.65,0,0,0,142.12,74Zm36.73-54.09A9.69,9.69,0,0,0,177,21.09a9.83,9.83,0,0,0-1.8-1.17c-.91-.41-2-1.42-2-4.24,0-2.51,2-3.53,3.85-3.53s3.85,1,3.85,3.54C180.89,18.5,179.76,19.51,178.85,19.92Zm33.29,51.3c.49-.65,1.49-1.39,3.75-.91a3.16,3.16,0,0,1-1.31,6.17c-2.26-.48-2.88-1.56-3.05-2.36a7.65,7.65,0,0,0-.63-1.64A7.64,7.64,0,0,0,212.14,71.22Z"/><path class="cls-1" d="M163.09,39c.56,1.18,1.47,1.44,1.72,1.32a1,1,0,0,0,.48-.83,1,1,0,0,0,.94.15c.25-.12.62-1,.06-2.16a1.77,1.77,0,1,0-3.2,1.52Z"/><path class="cls-1" d="M154.39,43.27c1,1,2,1,2.18.81a1.06,1.06,0,0,0,.23-1,1.05,1.05,0,0,0,1-.14c.22-.2.32-1.2-.62-2.24a1.9,1.9,0,0,0-2.81,2.57Z"/><path class="cls-1" d="M154.25,53.62c1.13.67,2,.38,2.16.14a1,1,0,0,0-.06-1,1,1,0,0,0,.87-.4c.14-.24,0-1.17-1.17-1.83a1.77,1.77,0,1,0-1.8,3Z"/><path class="cls-1" d="M146.64,58a1.6,1.6,0,0,0,1.26,2.06c1.22.3,2-.22,2-.48a.94.94,0,0,0-.33-.86.94.94,0,0,0,.68-.62c.07-.26-.36-1.06-1.58-1.35A1.6,1.6,0,0,0,146.64,58Z"/><path class="cls-1" d="M153.32,67.42a.76.76,0,0,0,.38-.62c0-.21-.52-.72-1.52-.66a1.35,1.35,0,1,0,.17,2.7c1-.06,1.43-.63,1.42-.84A.77.77,0,0,0,153.32,67.42Z"/><path class="cls-1" d="M187.1,38.43c-.56,1.17-.19,2,.06,2.16a1,1,0,0,0,.94-.15,1,1,0,0,0,.48.83c.25.12,1.15-.14,1.71-1.32a1.77,1.77,0,1,0-3.19-1.52Z"/><path class="cls-1" d="M198.14,41a1,1,0,0,0,1,.13,1,1,0,0,0,.22.95c.21.19,1.16.2,2.05-.77a1.79,1.79,0,1,0-2.64-2.42C197.84,39.9,197.94,40.85,198.14,41Z"/><path class="cls-1" d="M201.87,48.43c-1.14.66-1.32,1.59-1.18,1.84a1,1,0,0,0,.88.4,1,1,0,0,0-.07,1c.14.24,1,.53,2.18-.14a1.78,1.78,0,1,0-1.81-3.07Z"/><path class="cls-1" d="M200.86,57.91c-1,.25-1.39.93-1.34,1.15a.81.81,0,0,0,.58.52.79.79,0,0,0-.28.72c.05.22.68.66,1.71.42a1.44,1.44,0,1,0-.67-2.81Z"/><path class="cls-1" d="M205.38,66.27c-.89-.06-1.35.4-1.36.59a.67.67,0,0,0,.34.57A.67.67,0,0,0,204,68c0,.19.39.7,1.28.76a1.17,1.17,0,0,0,1.31-1.15A1.16,1.16,0,0,0,205.38,66.27Z"/><path class="cls-1" d="M177.05,13.68a2.05,2.05,0,0,0-2.17,2.18c0,1.59.87,2.36,1.21,2.36a1.21,1.21,0,0,0,1-.67,1.22,1.22,0,0,0,1,.67c.34,0,1.2-.76,1.2-2.36A2,2,0,0,0,177.05,13.68Z"/><path class="cls-1" d="M162.88,19a2,2,0,0,0-1.4,2.64c.46,1.48,1.47,1.94,1.79,1.84a1.18,1.18,0,0,0,.71-.89,1.16,1.16,0,0,0,1.08.35c.31-.1.9-1.05.45-2.53A2,2,0,0,0,162.88,19Z"/><path class="cls-1" d="M148.74,23.19a1.93,1.93,0,0,0-.55,2.84c.84,1.24,1.91,1.38,2.18,1.2a1.14,1.14,0,0,0,.4-1,1.15,1.15,0,0,0,1.1,0c.27-.18.54-1.23-.3-2.47A1.92,1.92,0,0,0,148.74,23.19Z"/><path class="cls-1" d="M142.07,37.12a1.86,1.86,0,0,0,.3,2.78c1.13.91,2.16.74,2.36.5a1.1,1.1,0,0,0,.08-1.06,1.09,1.09,0,0,0,1-.3c.2-.24.15-1.29-1-2.21A1.87,1.87,0,0,0,142.07,37.12Z"/><path class="cls-1" d="M136.61,46.6a1.91,1.91,0,1,0-1.43,3.54c1.3.52,2.21.07,2.32-.21a1.07,1.07,0,0,0-.23-1,1,1,0,0,0,.86-.56C138.25,48.08,137.91,47.13,136.61,46.6Z"/><path class="cls-1" d="M137.28,60.8c0-.28-.56-1.07-1.91-1.19a1.84,1.84,0,1,0-.32,3.67c1.35.12,2.06-.55,2.09-.84a1.05,1.05,0,0,0-.49-.87A1,1,0,0,0,137.28,60.8Z"/><path class="cls-1" d="M139.91,73a1,1,0,0,0,.37-.89c-.05-.27-.81-.83-2.09-.56a1.78,1.78,0,1,0,.73,3.48c1.28-.27,1.75-1.1,1.69-1.37A1,1,0,0,0,139.91,73Z"/><path class="cls-1" d="M189.36,21.34a1.17,1.17,0,0,0,1.08-.34,1.18,1.18,0,0,0,.71.89c.31.1,1.33-.36,1.79-1.84a2.11,2.11,0,1,0-4-1.24C188.46,20.29,189,21.25,189.36,21.34Z"/><path class="cls-1" d="M202.52,27.18a1.16,1.16,0,0,0,.4,1c.27.17,1.34,0,2.18-1.21a2,2,0,1,0-3.38-2.28c-.84,1.24-.57,2.29-.3,2.47A1.15,1.15,0,0,0,202.52,27.18Z"/><path class="cls-1" d="M209,39.5a1.12,1.12,0,0,0,.08,1.07c.2.24,1.23.41,2.36-.5A2,2,0,1,0,208.91,37c-1.13.92-1.18,2-1,2.2A1.09,1.09,0,0,0,209,39.5Z"/><path class="cls-1" d="M217.08,49a1.07,1.07,0,0,0-.22,1c.11.27,1,.73,2.32.2a1.91,1.91,0,1,0-1.43-3.54c-1.3.53-1.64,1.48-1.53,1.76A1.07,1.07,0,0,0,217.08,49Z"/><path class="cls-1" d="M218.23,61.44a1,1,0,0,0-.49.87c0,.29.73,1,2.09.84a1.84,1.84,0,1,0-.32-3.67c-1.35.12-1.94.91-1.91,1.19A1,1,0,0,0,218.23,61.44Z"/><path class="cls-1" d="M214.72,75.11a1.78,1.78,0,1,0,.75-3.48c-1.29-.27-2,.29-2.1.57a1,1,0,0,0,.37.88,1,1,0,0,0-.7.66C213,74,213.44,74.84,214.72,75.11Z"/><path class="cls-1" d="M179.49,40.82c.31-.8-1-1.1-2.51-.9C178,40.82,179.21,41.53,179.49,40.82Z"/><path class="cls-2" d="M8.43,193.56V218H11.8v.69H4.44V218h3.1V193.56H4.44v-.69h7.75l6,19.41,6-19.41h7.56v.69H28.35V218h3.37v.69H21.38V218h3.37V193.76l-7.75,25h-.74Z"/><path class="cls-2" d="M50.45,203.37c-1,3.6-3,5.27-6.27,5.27-4.19,0-7.4-3.45-7.4-7.91a7.75,7.75,0,0,1,7.78-7.86c3,0,5.23,1.66,5.23,3.91a1.61,1.61,0,0,1-1.55,1.82c-.89,0-1.51-.77-1.51-1.86a2.36,2.36,0,0,1,.66-1.7c.19-.19.23-.27.23-.35,0-.58-1.47-1.08-3-1.08-3.1,0-4.26,1.62-4.26,5.81v2.48c0,2.44.19,3.6.77,4.45a3.43,3.43,0,0,0,3.07,1.51c2.71,0,4.64-1.58,5.46-4.49Z"/><path class="cls-2" d="M58.6,193.56H55.23v-.69h9.46c6.66,0,10.19,2.21,10.19,6.31,0,3-2.21,5.08-6.55,6,5.15.81,7.55,2.87,7.55,6.51,0,4.81-3.29,7.05-10.27,7.05H55.23V218H58.6Zm6.28,11.28c4.45,0,6.2-1.55,6.2-5.54,0-4.15-1.86-5.74-6.74-5.74H62.21v11.28ZM65.61,218c4.19,0,6-1.9,6-6.32s-1.9-6.16-6.82-6.16H62.21V218Z"/><path class="cls-2" d="M88.37,218H92v.69H81.4V218h3.37V193.56H81.4v-.69H91.94c3.72,0,5.31.31,6.82,1.39a5.32,5.32,0,0,1,2.32,4.61,5.41,5.41,0,0,1-2.36,4.46c-1.4,1-2.71,1.47-5.66,1.82,2.83.5,4,1,5.23,2.25a7,7,0,0,1,1.94,5v2.13c0,2.59.54,3.56,2,3.56a3.35,3.35,0,0,0,1.59-.5l.2.66a5.13,5.13,0,0,1-2.6.66c-3.49,0-5.31-2.29-5.31-6.59v-1.9c0-3.45-1.74-5.07-5.38-5.07H88.37Zm2.52-13.37c4.19,0,6.16-1.78,6.16-5.54s-1.78-5.55-5.93-5.55H88.37v11.09Z"/><path class="cls-2" d="M112.06,193.56h-3.37v-.69H119v.69h-3.37V218H119v.69H108.69V218h3.37Z"/><path class="cls-2" d="M128.85,193.56h-3.37v-.69h9.61c5,0,7.86,1,10.27,3.83a14.57,14.57,0,0,1-.51,18.68c-2.48,2.56-4.76,3.33-9.72,3.33h-9.65V218h3.37ZM135.13,218c4.18,0,6.35-.86,7.63-3,.93-1.47,1.32-4.41,1.32-9.76,0-6.13-.62-8.64-2.44-10.12-1.47-1.16-3.3-1.63-6.55-1.63h-2.64V218Z"/><path class="cls-2" d="M172.69,199.88h-.5c-1.2-5.19-2.64-6.32-8-6.32h-3.3v11.71h1.82c3,0,4.15-1.13,4.15-4.11v-.74h.5V211h-.5v-.89c0-3-1.28-4.19-4.26-4.19h-1.71V218h5.19c3.57,0,4.46-.47,5.78-3a27.49,27.49,0,0,0,1.47-4.33h.5l-.77,8.05H153.9V218h3.37V193.56H153.9v-.69h18.29Z"/><path class="cls-2" d="M206.62,199.22h-.78c-.58-3.87-2.75-6-6-6a4.86,4.86,0,0,0-5.16,4.73c0,2.21,1.4,3.37,5.19,4.38l2.06.51c4.26,1.12,6.12,3.36,6.12,7.47,0,5.2-3.1,8.76-7.59,8.76a7.9,7.9,0,0,1-6-2.56l-1.36,2.17h-.5l-.27-8h.77a9.36,9.36,0,0,0,1.51,4.42,7.12,7.12,0,0,0,5.89,3.22,5.41,5.41,0,0,0,5.66-5.7c0-2.79-1.36-4.22-4.76-5.11l-3-.82c-3.87-1-5.58-3.06-5.58-6.55,0-4.34,3.06-7.67,7.05-7.67a8.13,8.13,0,0,1,5,1.74l1.2-1.7h.55Z"/><path class="cls-2" d="M217.67,193.56H214.3v-.69h10.35v.69h-3.38V218h3.38v.69H214.3V218h3.37Z"/><path class="cls-2" d="M246,199.22h-.78c-.58-3.87-2.75-6-6-6A4.86,4.86,0,0,0,234,198c0,2.21,1.4,3.37,5.19,4.38l2.06.51c4.26,1.12,6.12,3.36,6.12,7.47,0,5.2-3.1,8.76-7.59,8.76a7.9,7.9,0,0,1-6-2.56l-1.36,2.17h-.5l-.27-8h.77a9.36,9.36,0,0,0,1.51,4.42,7.12,7.12,0,0,0,5.89,3.22,5.41,5.41,0,0,0,5.66-5.7c0-2.79-1.36-4.22-4.76-5.11l-3-.82c-3.87-1-5.58-3.06-5.58-6.55,0-4.34,3.06-7.67,7.05-7.67a8.13,8.13,0,0,1,5,1.74l1.2-1.7h.55Z"/><path class="cls-2" d="M265.31,218h3.88v.69H257.84V218h3.87V193.56h-1.86c-2.63,0-3.6.51-4.84,2.52a15.17,15.17,0,0,0-1.75,4.92l-.5-.07.31-8.06H273.8l.5,8.06-.5.07c-1.71-5.92-3-7.44-6.55-7.44h-1.94Z"/><path class="cls-2" d="M298,199.88h-.5c-1.2-5.19-2.64-6.32-8-6.32h-3.3v11.71H288c3,0,4.15-1.13,4.15-4.11v-.74h.5V211h-.5v-.89c0-3-1.28-4.19-4.26-4.19h-1.71V218h5.2c3.56,0,4.45-.47,5.77-3a27.49,27.49,0,0,0,1.47-4.33h.51l-.78,8.05H279.24V218h3.37V193.56h-3.37v-.69h18.29Z"/><path class="cls-2" d="M312.81,218h3.6v.69H305.84V218h3.37V193.56h-3.37v-.69h10.53c3.72,0,5.31.31,6.82,1.39a5.33,5.33,0,0,1,2.33,4.61,5.42,5.42,0,0,1-2.37,4.46c-1.39,1-2.71,1.47-5.65,1.82,2.83.5,4,1,5.23,2.25a7,7,0,0,1,1.94,5v2.13c0,2.59.54,3.56,2,3.56a3.38,3.38,0,0,0,1.59-.5l.19.66a5.07,5.07,0,0,1-2.59.66c-3.49,0-5.31-2.29-5.31-6.59v-1.9c0-3.45-1.74-5.07-5.39-5.07h-2.36Zm2.52-13.37c4.18,0,6.16-1.78,6.16-5.54s-1.78-5.55-5.93-5.55h-2.75v11.09Z"/><path class="cls-2" d="M348,199.22h-.78c-.58-3.87-2.75-6-6-6A4.86,4.86,0,0,0,336,198c0,2.21,1.4,3.37,5.2,4.38l2,.51c4.26,1.12,6.12,3.36,6.12,7.47,0,5.2-3.1,8.76-7.59,8.76a7.9,7.9,0,0,1-6-2.56l-1.36,2.17H334l-.27-8h.77a9.36,9.36,0,0,0,1.51,4.42,7.12,7.12,0,0,0,5.89,3.22,5.4,5.4,0,0,0,5.66-5.7c0-2.79-1.35-4.22-4.76-5.11l-3-.82c-3.87-1-5.58-3.06-5.58-6.55,0-4.34,3.06-7.67,7.06-7.67a8.12,8.12,0,0,1,5,1.74l1.21-1.7H348Z"/><circle class="cls-2" cx="40.77" cy="216.25" r="1.3"/><circle class="cls-2" cx="46.46" cy="216.25" r="1.3"/><path class="cls-1" d="M113.08,239.93a7,7,0,0,1-2.38,1.83,6.55,6.55,0,0,1-2.67.55,5.93,5.93,0,0,1-4-1.45,5.16,5.16,0,0,1-1.79-4.07,4.86,4.86,0,0,1,1.83-3.85,6.3,6.3,0,0,1,5.17-1.32,6.33,6.33,0,0,1,1.17.36,8.7,8.7,0,0,1,2.37,1.4l-.89,1.27a6.47,6.47,0,0,0-1.93-1.23,5.07,5.07,0,0,0-1.91-.37,4.33,4.33,0,0,0-2.84,1.08,3.39,3.39,0,0,0-1.36,2.66,3.78,3.78,0,0,0,1.26,3,4.26,4.26,0,0,0,2.94,1,5.27,5.27,0,0,0,2-.41,4.64,4.64,0,0,0,1-.56,9.13,9.13,0,0,0,1-.88Z"/><path class="cls-1" d="M130.08,236.94a5,5,0,0,1-1.8,3.93,6.1,6.1,0,0,1-4.09,1.44,5.89,5.89,0,0,1-4-1.56,4.91,4.91,0,0,1-1.83-3.81,5,5,0,0,1,1.8-3.86,5.82,5.82,0,0,1,4-1.51,6.25,6.25,0,0,1,4,1.3A4.92,4.92,0,0,1,130.08,236.94Zm-1.49,0a3.42,3.42,0,0,0-1.39-2.79,4.7,4.7,0,0,0-3-1,4.3,4.3,0,0,0-2.92,1.15,3.44,3.44,0,0,0-1.32,2.67,3.69,3.69,0,0,0,1.23,2.82,4.29,4.29,0,0,0,3,1.14,4.56,4.56,0,0,0,3-1.09A3.63,3.63,0,0,0,128.59,236.93Z"/><path class="cls-1" d="M145,242.15h-8V231.73h1.51v9H145Z"/><path class="cls-1" d="M159.64,242.15h-8V231.73h1.5v9h6.47Z"/><path class="cls-1" d="M175.41,242.15h-9V231.76h8.65v1.42h-7.19v2.93h3.86v1.43h-3.86v3.19h7.55Z"/><path class="cls-1" d="M192.07,239.93a6.93,6.93,0,0,1-2.37,1.83,6.56,6.56,0,0,1-2.68.55,5.91,5.91,0,0,1-4-1.45,5.13,5.13,0,0,1-1.8-4.07,4.86,4.86,0,0,1,1.83-3.85,6.15,6.15,0,0,1,6.34-1,8.7,8.7,0,0,1,2.37,1.4l-.89,1.27a6.56,6.56,0,0,0-1.92-1.23,5.12,5.12,0,0,0-1.92-.37,4.31,4.31,0,0,0-2.83,1.08,3.4,3.4,0,0,0-1.37,2.66,3.78,3.78,0,0,0,1.26,3,4.28,4.28,0,0,0,2.94,1,5.27,5.27,0,0,0,2-.41,4.64,4.64,0,0,0,1-.56,9.13,9.13,0,0,0,1-.88Z"/><path class="cls-1" d="M206.39,233.18h-3.8v9h-1.48v-9h-3.8v-1.42h9.08Z"/><path class="cls-1" d="M215.06,242.16h-1.54V231.73h1.54Z"/><path class="cls-1" d="M233.88,236.94a4.93,4.93,0,0,1-1.81,3.93,6.06,6.06,0,0,1-4.09,1.44,5.88,5.88,0,0,1-4-1.56,4.91,4.91,0,0,1-1.83-3.81,5,5,0,0,1,1.8-3.86,5.82,5.82,0,0,1,4-1.51,6.28,6.28,0,0,1,4,1.3A4.92,4.92,0,0,1,233.88,236.94Zm-1.5,0a3.41,3.41,0,0,0-1.38-2.79,4.7,4.7,0,0,0-3-1,4.3,4.3,0,0,0-2.91,1.15,3.44,3.44,0,0,0-1.32,2.67,3.69,3.69,0,0,0,1.23,2.82,4.29,4.29,0,0,0,3,1.14A4.56,4.56,0,0,0,231,239.8,3.62,3.62,0,0,0,232.38,236.93Z"/><path class="cls-1" d="M250.3,242.16h-1.5l-6.46-8-.05,8h-1.51V231.73h1.43l6.6,8.23v-8.23h1.49Z"/><path class="cls-3" d="M206.34,171.77l5.62-4.53V104.83s-5.25,11.18-5.67,12l-10,19.71a28.53,28.53,0,0,0-2.38-1.81,6,6,0,0,0,.25-.75,4.51,4.51,0,0,1,.15-.5c.43-1,7.55-15.57,12.23-25.09.2-.39,1.92-4,.29-7.48a8.11,8.11,0,0,0-1.49-2.15h16.49l-5.83,4.6V131l2.85,4.19-2.72,4v29.28l5.08,3.31ZM190,149.31c-.07.12-.49.82-.63,1-.55.88-7,13.66-10.82,21.28l-29.48-54.46-5.71-12.29L143,167l5.36,4.53H133.91L139,168V138.58l-2.65-3.53,2.47-3.8V103.54l-5.3-4.8h18.14a6.1,6.1,0,0,0-.54.59c-1.94,2.35-2.21,5.75-.72,9.12,1.16,2.63,24.81,49.48,25.82,51.48l2.26,4.48,8.67-16.67Zm3.44-35.61h0Z"/></svg>