<?xml version="1.0" encoding="UTF-8" standalone="no"?> <svg xmlns="http://www.w3.org/2000/svg" xmlns:xlink="http://www.w3.org/1999/xlink" width="179px" height="29px" viewBox="0 0 179 29"><!-- Generator: Sketch 49 (51002) - http://www.bohemiancoding.com/sketch --><title>MOVITA</title><desc>Created with Sketch.</desc><defs></defs><g id="Page-1" stroke="none" stroke-width="1" fill="none" fill-rule="evenodd"><g id="movita-logo" fill="#333333" fill-rule="nonzero"><path d="M15.332567,29 L8.06594759,11.683277 L3.9966407,28.2162162 L0,28.2162162 L6.93962157,0 L15.332567,19.9864865 L23.7255125,0 L30.7014672,28.2162162 L26.6684934,28.2162162 L22.5991865,11.683277 L15.332567,29 Z M69.0471997,14.5 C69.0471997,22.2888514 62.797907,28.6081081 55.0952904,28.6081081 C47.3926737,28.6081081 41.143381,22.2888514 41.143381,14.5 C41.143381,6.71114865 47.3926737,0.391891892 55.0952904,0.391891892 C62.797907,0.391891892 69.0471997,6.71114865 69.0471997,14.5 Z M55.0952904,4.11486486 C49.5242155,4.11486486 45.0189114,8.76858108 45.0189114,14.5 C45.0189114,20.2314189 49.5242155,24.8851351 55.0952904,24.8851351 C60.6663653,24.8851351 65.1716693,20.2314189 65.1716693,14.5 C65.1716693,8.76858108 60.6663653,4.11486486 55.0952904,4.11486486 Z M97.6677741,0.783783784 L101.894524,0.783783784 L89.9893795,29 L77.6240154,0.783783784 L81.8507658,0.783783784 L89.9893795,19.1659628 L97.6677741,0.783783784 Z M113.377993,28.2162162 L113.377993,0.783783784 L117.253523,0.783783784 L117.253523,28.2162162 L113.377993,28.2162162 Z M139.552153,4.31081081 L139.552153,28.2162162 L135.676623,28.2162162 L135.676623,4.31081081 L128.894445,4.31081081 L128.894445,0.783783784 L146.334331,0.783783784 L146.334331,4.31081081 L139.552153,4.31081081 Z M158.496022,28.2162162 L154.196606,28.2162162 L167.179632,0 L179,28.2162162 L174.809583,28.2162162 L172.992928,23.9054054 L160.47012,23.9054054 L158.496022,28.2162162 Z M162.10511,20.3783784 L171.515382,20.3783784 L167.022189,9.67483108 L162.10511,20.3783784 Z" id="MOVITA"></path></g></g></svg> 